<svg width="209" height="34" viewBox="0 0 209 34" fill="none" xmlns="http://www.w3.org/2000/svg">
<g clip-path="url(#clip0_2_1794)">
<path d="M19.3151 29.1255H8.48536L7.44062 33.1006H0L10.1926 0.509644H17.302L27.673 33.1006H20.3598L19.3151 29.1255ZM17.7352 23.2137L13.9129 8.7402L10.0652 23.2137H17.7352ZM29.4822 0.509644H36.5406V33.1006H29.4822V0.509644ZM39.6748 33.1006C39.5434 29.9263 40.1633 26.7658 41.484 23.8763C42.7957 21.3694 44.8521 19.3308 47.3703 18.041L52.1098 15.4928C53.0919 15.0548 53.9242 14.3387 54.5038 13.4331C55.0834 12.5274 55.3851 11.4717 55.3715 10.3965C55.3961 9.89486 55.3209 9.39331 55.1503 8.92092C54.9797 8.44852 54.7171 8.01467 54.3777 7.64449C54.0561 7.2918 53.6616 7.01337 53.2216 6.82856C52.7815 6.64374 52.3065 6.55696 51.8295 6.57426C51.221 6.54301 50.614 6.65868 50.0596 6.91148C49.5052 7.16428 49.0198 7.5468 48.6443 8.02671C47.841 9.21885 47.4557 10.6437 47.5487 12.0783H40.2354C40.1848 10.0036 40.6673 7.95053 41.6369 6.11559C42.5554 4.43606 43.9464 3.06282 45.6375 2.16595C47.4928 1.20164 49.5608 0.719679 51.6512 0.76446C54.5322 0.607779 57.3704 1.51456 59.6269 3.31262C60.5927 4.16404 61.3534 5.22291 61.8521 6.40995C62.3507 7.59699 62.5744 8.88145 62.5063 10.1672C62.5265 12.13 62.0064 14.0605 61.0029 15.7476C59.9399 17.4735 58.424 18.8748 56.6201 19.7992L52.2373 22.3474C51.2077 22.8822 50.277 23.5888 49.4852 24.4369C48.9049 25.192 48.4884 26.0599 48.2621 26.985H62.2515V33.1516L39.6748 33.1006ZM70.6095 13.0721H64.341V7.16034C65.8435 7.21971 67.3445 7.01266 68.7748 6.54878C69.6995 6.25268 70.4693 5.60211 70.9153 4.73959C71.3688 3.69639 71.578 2.56335 71.5268 1.42698H77.6169V33.1006H70.6095V13.0721Z" fill="#262123"/>
<path d="M99.9388 33.6867C98.1464 33.72 96.3644 33.4086 94.6896 32.7693C93.3215 32.2428 92.117 31.3637 91.1986 30.2212C90.3794 29.1077 89.9496 27.7555 89.9755 26.3734H96.6262C96.6212 26.7438 96.704 27.1101 96.8679 27.4423C97.0317 27.7745 97.272 28.0632 97.569 28.2846C98.3225 28.7815 99.2159 29.0227 100.117 28.9726C100.735 28.9985 101.344 28.8193 101.85 28.4629C102.078 28.2797 102.261 28.0466 102.384 27.7815C102.508 27.5164 102.569 27.2265 102.563 26.934C102.572 26.7001 102.533 26.467 102.45 26.2482C102.367 26.0294 102.241 25.8294 102.079 25.66C101.564 25.2352 100.951 24.9461 100.296 24.8191L95.8872 23.6724C94.3609 23.3337 92.9846 22.5116 91.963 21.3281C91.0321 20.1194 90.5542 18.6227 90.6125 17.0982C90.5917 16.1057 90.8129 15.123 91.2568 14.2351C91.7008 13.3472 92.3542 12.5807 93.1607 12.0018C95.0457 10.619 97.3488 9.92631 99.684 10.0397C102.119 9.89449 104.538 10.5281 106.589 11.8489C107.407 12.4166 108.07 13.1809 108.515 14.0715C108.96 14.962 109.174 15.9503 109.138 16.9453H102.563C102.578 16.6108 102.515 16.2776 102.378 15.9722C102.24 15.6668 102.033 15.3979 101.773 15.187C101.181 14.7198 100.438 14.4843 99.684 14.5245C99.0531 14.4897 98.4302 14.6792 97.9257 15.0596C97.7221 15.2083 97.5577 15.4043 97.4467 15.6307C97.3357 15.8571 97.2815 16.1071 97.2887 16.3592C97.2804 16.5991 97.3214 16.8382 97.409 17.0617C97.4967 17.2852 97.6291 17.4884 97.7983 17.6587C98.3198 18.0732 98.9304 18.3611 99.582 18.4996L104.041 19.7992C105.551 20.1655 106.917 20.9727 107.965 22.118C108.919 23.2876 109.417 24.7631 109.367 26.2715C109.399 27.3165 109.185 28.3544 108.742 29.3015C108.3 30.2487 107.641 31.0786 106.819 31.7246C104.823 33.1581 102.39 33.8518 99.9388 33.6867ZM122.541 27.5456C123.307 27.5502 124.073 27.5077 124.834 27.4182V33.1006C123.37 33.3501 121.886 33.4695 120.4 33.4573C118.492 33.5284 116.616 32.9538 115.075 31.8265C114.244 30.9587 113.62 29.9144 113.249 28.7716C112.879 27.6288 112.771 26.417 112.934 25.2268V16.2827H109.622V10.6513H112.934V4.00061H119.611V10.6513H124.35V16.2827H119.611V23.7234C119.494 24.8056 119.755 25.895 120.35 26.8066C120.648 27.0684 120.995 27.2684 121.371 27.3952C121.747 27.5221 122.145 27.5732 122.541 27.5456ZM134.466 33.6867C133.39 33.7545 132.311 33.5764 131.314 33.1659C130.316 32.7553 129.425 32.123 128.707 31.3169C127.243 29.3633 126.529 26.9491 126.694 24.5133V10.6513H133.447V22.9334C133.365 24.1879 133.658 25.4385 134.288 26.5263C134.588 26.9109 134.976 27.2179 135.42 27.4218C135.863 27.6257 136.349 27.7206 136.836 27.6985C137.413 27.744 137.992 27.6497 138.524 27.4234C139.057 27.1971 139.526 26.8457 139.894 26.3989C140.615 25.3068 140.964 24.0107 140.888 22.7041V10.6513H147.513V33.1006H140.888V29.8899C140.32 31.0529 139.437 32.0329 138.34 32.7184C137.169 33.3859 135.839 33.7207 134.492 33.6867H134.466ZM173.071 0.560601V33.1006H166.446V29.9154C165.828 31.0732 164.891 32.0286 163.745 32.6674C162.534 33.3548 161.162 33.7067 159.77 33.6867C157.88 33.7283 156.023 33.1951 154.444 32.1578C152.948 31.1068 151.774 29.6597 151.055 27.9788C150.244 26.0435 149.845 23.9609 149.883 21.8632C149.851 19.7856 150.269 17.7257 151.106 15.8241C151.85 14.1154 153.049 12.6436 154.571 11.5686C156.138 10.5455 157.975 10.0131 159.846 10.0397C161.238 10.0197 162.61 10.3716 163.821 11.059C164.925 11.7254 165.811 12.6996 166.369 13.862V0.509637L173.071 0.560601ZM161.681 27.8259C162.387 27.863 163.093 27.7322 163.74 27.4444C164.386 27.1565 164.956 26.7197 165.401 26.1696C166.301 24.9378 166.759 23.4385 166.701 21.9142C166.751 20.4145 166.293 18.9417 165.401 17.7352C164.961 17.1773 164.393 16.7333 163.746 16.4406C163.098 16.1479 162.39 16.0151 161.681 16.0534C160.989 16.0274 160.3 16.1609 159.668 16.4437C159.037 16.7265 158.478 17.151 158.037 17.6842C157.092 18.8855 156.612 20.3875 156.686 21.9142C156.607 23.4571 157.086 24.977 158.037 26.1951C158.486 26.7225 159.051 27.1395 159.687 27.4134C160.323 27.6874 161.014 27.8111 161.706 27.7749L161.681 27.8259ZM180.18 8.74019C179.627 8.75874 179.075 8.65669 178.565 8.44109C178.055 8.22549 177.597 7.90151 177.224 7.49159C176.459 6.65029 176.048 5.54553 176.078 4.40832C176.047 3.26326 176.457 2.15008 177.224 1.29957C177.605 0.898641 178.064 0.57939 178.572 0.361234C179.08 0.143079 179.627 0.0305786 180.18 0.0305786C180.733 0.0305786 181.281 0.143079 181.789 0.361234C182.297 0.57939 182.755 0.898641 183.136 1.29957C183.89 2.14463 184.307 3.23757 184.307 4.3701C184.307 5.50262 183.89 6.59556 183.136 7.44063C182.765 7.8459 182.312 8.16703 181.806 8.3824C181.301 8.59777 180.755 8.70239 180.206 8.68923L180.18 8.74019ZM176.868 10.7023H183.493V33.1515H176.868V10.7023ZM197.253 33.6357C195.095 33.6922 192.96 33.1827 191.061 32.1578C189.32 31.165 187.898 29.698 186.958 27.9278C186.036 26.0256 185.557 23.939 185.557 21.825C185.557 19.7109 186.036 17.6244 186.958 15.7221C187.884 13.9484 189.31 12.4862 191.061 11.5177C192.952 10.4648 195.09 9.93691 197.253 9.98879C199.4 9.93606 201.522 10.4643 203.394 11.5177C205.141 12.4742 206.554 13.941 207.446 15.7221C208.4 17.615 208.897 19.7052 208.897 21.825C208.897 23.9448 208.4 26.035 207.446 27.9278C206.569 29.6992 205.197 31.1777 203.496 32.1833C201.617 33.2162 199.499 33.7348 197.355 33.6867L197.253 33.6357ZM197.253 27.6475C197.944 27.6743 198.632 27.5463 199.266 27.273C199.901 26.9996 200.467 26.5878 200.922 26.0677C201.861 24.8532 202.339 23.3457 202.273 21.8122C202.344 20.3017 201.864 18.8167 200.922 17.6333C200.446 17.1321 199.873 16.733 199.238 16.4603C198.603 16.1877 197.919 16.047 197.227 16.047C196.536 16.047 195.852 16.1877 195.217 16.4603C194.582 16.733 194.009 17.1321 193.533 17.6333C192.618 18.8281 192.157 20.3092 192.233 21.8122C192.163 23.3381 192.622 24.8414 193.533 26.0677C194.002 26.615 194.59 27.0468 195.253 27.3297C195.916 27.6125 196.635 27.7387 197.355 27.6985L197.253 27.6475Z" fill="#E91E63"/>
</g>
<defs>
<clipPath id="clip0_2_1794">
<rect width="209" height="33.7121" fill="white"/>
</clipPath>
</defs>
</svg>
